<?xml version="1.0" encoding="UTF-8" standalone="no"?>
<!-- Created with Inkscape (http://www.inkscape.org/) -->

<svg
   xmlns:dc="http://purl.org/dc/elements/1.1/"
   xmlns:cc="http://creativecommons.org/ns#"
   xmlns:rdf="http://www.w3.org/1999/02/22-rdf-syntax-ns#"
   xmlns:svg="http://www.w3.org/2000/svg"
   xmlns="http://www.w3.org/2000/svg"
   xmlns:sodipodi="http://sodipodi.sourceforge.net/DTD/sodipodi-0.dtd"
   xmlns:inkscape="http://www.inkscape.org/namespaces/inkscape"
   version="1.1"
   id="svg6058"
   xml:space="preserve"
   width="800"
   height="800"
   viewBox="0 0 800 800"
   sodipodi:docname="chef-restaurant-logo-publicdomainvectors.org.svg"
   inkscape:version="0.92.4 (5da689c313, 2019-01-14)"><metadata
     id="metadata6064"><rdf:RDF><cc:Work
         rdf:about=""><dc:format>image/svg+xml</dc:format><dc:type
           rdf:resource="http://purl.org/dc/dcmitype/StillImage" /><dc:title></dc:title></cc:Work></rdf:RDF></metadata><defs
     id="defs6062"><clipPath
       clipPathUnits="userSpaceOnUse"
       id="clipPath6074"><path
         d="M 0,600 H 600 V 0 H 0 Z"
         id="path6072"
         inkscape:connector-curvature="0" /></clipPath></defs><sodipodi:namedview
     pagecolor="#ffffff"
     bordercolor="#666666"
     borderopacity="1"
     objecttolerance="10"
     gridtolerance="10"
     guidetolerance="10"
     inkscape:pageopacity="0"
     inkscape:pageshadow="2"
     inkscape:window-width="797"
     inkscape:window-height="480"
     id="namedview6060"
     showgrid="false"
     inkscape:zoom="0.295"
     inkscape:cx="400"
     inkscape:cy="400"
     inkscape:window-x="0"
     inkscape:window-y="0"
     inkscape:window-maximized="0"
     inkscape:current-layer="g6066" /><g
     id="g6066"
     inkscape:groupmode="layer"
     inkscape:label="chef-restaurant-logo-publicdomainvectors.org"
     transform="matrix(1.3333333,0,0,-1.3333333,0,800)"><g
       id="g6068"><g
         id="g6070"
         clip-path="url(#clipPath6074)"><path
           d="m 517.148,78.602 c -0.43,-0.356 -0.949,-0.525 -1.463,-0.525 -0.667,0 -1.325,0.284 -1.781,0.835 L 254.927,392.84 c -0.808,0.984 -0.669,2.434 0.312,3.245 0.986,0.808 2.435,0.668 3.245,-0.311 L 517.457,81.846 c 0.813,-0.984 0.672,-2.435 -0.309,-3.244 M 393.54,159.815 c -44.6,-0.913 -99.774,-7.759 -134.934,-13.615 3.858,1.419 7.919,2.903 11.989,4.371 9.083,3.276 18.194,6.468 25.072,8.683 1.863,0.599 3.542,1.118 5.032,1.552 1.267,0.372 2.399,0.687 3.333,0.919 1.019,0.251 1.824,0.414 2.385,0.472 0.552,0.076 0.855,0 0.855,0.022 0,-0.004 -0.017,0.002 -0.06,0.015 -0.108,0.037 -0.37,0.127 -0.792,0.171 -0.572,0.074 -1.413,0.109 -2.483,0.105 -2.134,-0.008 -5.177,-0.164 -8.815,-0.427 -7.278,-0.533 -16.945,-1.489 -26.597,-2.531 -4.681,-0.507 -9.359,-1.033 -13.764,-1.54 3.871,1.437 7.964,2.944 12.065,4.435 8.864,3.224 17.751,6.366 24.465,8.536 1.839,0.596 3.493,1.106 4.962,1.538 1.21,0.355 2.3,0.659 3.201,0.882 0.994,0.244 1.781,0.403 2.324,0.46 0.541,0.072 0.838,0.003 0.838,0.02 0,-0.021 -0.269,0.123 -0.832,0.188 -0.558,0.077 -1.377,0.117 -2.425,0.117 -2.083,0.003 -5.061,-0.133 -8.613,-0.377 -7.11,-0.488 -16.556,-1.391 -25.987,-2.38 -4.576,-0.48 -9.148,-0.981 -13.457,-1.461 3.775,1.411 7.755,2.892 11.756,4.358 8.641,3.168 17.305,6.253 23.853,8.385 1.806,0.588 3.43,1.092 4.867,1.516 1.171,0.344 2.225,0.638 3.095,0.854 0.968,0.239 1.74,0.392 2.27,0.449 0.526,0.064 0.816,0.006 0.819,0.016 0,-0.02 -0.269,0.121 -0.814,0.19 -0.544,0.077 -1.344,0.122 -2.365,0.132 -2.04,0.017 -4.942,-0.107 -8.41,-0.328 -6.943,-0.448 -16.169,-1.297 -25.379,-2.233 -4.473,-0.453 -8.944,-0.928 -13.152,-1.385 3.675,1.389 7.553,2.843 11.448,4.283 8.415,3.115 16.86,6.143 23.241,8.233 1.773,0.581 3.368,1.079 4.778,1.495 1.126,0.335 2.142,0.619 2.983,0.828 0.947,0.234 1.698,0.38 2.212,0.435 0.513,0.058 0.799,0.008 0.802,0.012 0,-0.015 -0.26,0.117 -0.791,0.194 -0.533,0.08 -1.315,0.132 -2.31,0.145 -1.988,0.03 -4.821,-0.077 -8.208,-0.278 -6.776,-0.404 -15.781,-1.2 -24.768,-2.082 -1.225,-0.12 -2.453,-0.242 -3.676,-0.365 l 2.239,3.365 c 8.104,3.022 16.212,5.955 22.361,7.981 1.743,0.573 3.304,1.063 4.687,1.475 1.083,0.322 2.063,0.597 2.874,0.797 0.923,0.227 1.652,0.37 2.156,0.422 0.499,0.055 0.779,0.011 0.779,0.011 0,-0.017 -0.251,0.113 -0.77,0.195 -0.519,0.081 -1.278,0.136 -2.25,0.159 -1.939,0.041 -4.701,-0.047 -8.005,-0.23 -4.385,-0.241 -9.731,-0.649 -15.388,-1.138 l 3.72,5.584 c 36.412,6.364 80.588,10.264 105.647,12.138 l 15.611,-18.923 c 2.579,-14.745 5.342,-32.704 6.326,-46.845 m -38.495,84.207 c -1.015,-0.371 -2.017,-0.652 -2.973,-0.908 -0.947,-0.287 -1.87,-0.488 -2.741,-0.672 -0.495,-0.116 -0.942,-0.178 -1.407,-0.264 -20.02,-1.769 -44.584,-4.333 -68.04,-7.829 l 37.745,56.66 38.446,-46.606 c -0.34,-0.119 -0.692,-0.274 -1.03,-0.381 M 144.257,42.677 c -0.443,-0.665 -1.176,-1.026 -1.919,-1.026 -0.439,0 -0.883,0.127 -1.277,0.388 -1.056,0.703 -1.346,2.136 -0.639,3.194 l 169.753,254.809 3.064,-3.714 z m 60.348,281.861 c -0.042,-0.107 -0.085,-0.218 -0.128,-0.321 l -1.419,0.502 c 0.54,-0.059 1.054,-0.119 1.547,-0.181 m 5.138,-8.978 c 2.934,4.146 6.188,8.799 9.89,13.629 3.684,4.836 7.802,9.869 12.437,14.684 4.601,4.856 9.849,9.34 15.559,13.164 3.407,2.254 7.035,4.133 10.811,5.719 l 40.811,-49.472 -54.996,-82.555 c -5.24,1.839 -11.168,4.741 -16.49,8.744 -3.637,2.682 -6.955,5.841 -9.598,9.19 -2.667,3.346 -4.56,6.914 -5.632,10.209 -0.486,1.648 -0.85,3.223 -0.964,4.641 -0.166,1.417 -0.138,2.692 -0.051,3.716 0.069,1.03 0.217,1.866 0.348,2.418 0.114,0.557 0.175,0.858 0.175,0.858 0,0 -0.127,-0.278 -0.372,-0.793 -0.257,-0.513 -0.593,-1.265 -0.923,-2.315 -0.347,-1.038 -0.69,-2.322 -0.88,-3.85 -0.237,-1.525 -0.264,-3.276 -0.165,-5.199 0.285,-3.828 1.417,-8.284 3.464,-12.685 2.021,-4.417 4.856,-8.823 8.195,-12.821 2.138,-2.603 4.496,-5.006 6.945,-7.226 -0.485,0.224 -0.96,0.432 -1.449,0.672 -1.127,0.559 -2.252,1.177 -3.403,1.821 -1.088,0.667 -2.244,1.331 -3.327,2.086 -2.185,1.451 -4.26,3.118 -6.264,4.927 -1.954,1.778 -3.73,3.747 -5.358,5.818 -1.576,2.02 -2.955,4.156 -4.11,6.329 -1.315,2.464 -2.35,4.961 -3.131,7.408 -0.575,1.805 -1.001,3.586 -1.308,5.294 -0.295,1.914 -0.474,3.752 -0.51,5.434 -0.009,0.85 0.012,1.659 0.053,2.431 0.054,0.639 0.112,1.244 0.17,1.817 0.188,1.029 0.346,1.935 0.485,2.675 0.172,0.433 0.259,0.741 0.243,0.912 -0.031,0.294 -0.177,0.454 -0.419,0.498 -0.263,0.397 -0.558,0.598 -0.916,0.613 -0.179,0.41 -0.326,0.652 -0.5,0.666 -0.015,0.24 -0.069,0.302 -0.163,0.16 -0.091,-0.133 -0.266,-0.457 -0.518,-0.945 -0.417,-0.718 -0.88,-1.634 -1.337,-2.789 -0.363,-0.856 -0.717,-1.811 -1.044,-2.866 -0.172,-0.563 -0.336,-1.157 -0.481,-1.778 -0.492,-1.9 -0.799,-4.037 -0.952,-6.357 -0.132,-2.279 -0.055,-4.73 0.271,-7.276 0.345,-2.848 1.008,-5.812 2.028,-8.765 1.137,-3.237 2.617,-6.49 4.466,-9.585 1.137,-1.906 2.375,-3.779 3.712,-5.574 0.79,-1.075 1.619,-2.122 2.484,-3.131 1.109,-1.369 2.324,-2.621 3.516,-3.881 0.961,-0.963 1.935,-1.897 2.92,-2.803 -1.601,0.825 -3.222,1.716 -4.861,2.718 -1.283,0.793 -2.54,1.672 -3.832,2.56 -1.198,0.953 -2.517,1.858 -3.679,2.919 -2.426,2.018 -4.609,4.348 -6.66,6.818 -2.032,2.46 -3.72,5.168 -5.184,7.964 -1.438,2.778 -2.55,5.672 -3.328,8.57 -0.91,3.306 -1.393,6.59 -1.561,9.718 -0.124,2.324 -0.063,4.564 0.119,6.657 0.274,2.394 0.632,4.633 1.14,6.587 0.263,1.029 0.551,1.979 0.841,2.861 0.264,0.752 0.525,1.449 0.769,2.094 0.575,1.253 1.048,2.293 1.423,3.039 0.383,0.594 0.584,0.953 0.577,1.039 -0.021,0.147 -0.275,0.049 -0.742,-0.265 -0.488,-0.128 -1.109,-0.554 -1.883,-1.237 -0.425,-0.203 -0.869,-0.554 -1.342,-1.085 -0.148,-0.074 -0.318,-0.246 -0.512,-0.53 -0.181,-0.269 -0.399,-0.638 -0.659,-1.101 -0.581,-0.921 -1.173,-2.007 -1.752,-3.262 -0.49,-1.031 -0.976,-2.152 -1.449,-3.358 -0.247,-0.666 -0.491,-1.363 -0.721,-2.083 -0.742,-2.273 -1.336,-4.796 -1.738,-7.515 -0.398,-2.737 -0.578,-5.67 -0.45,-8.734 0.112,-3.456 0.625,-7.064 1.585,-10.658 1.019,-3.734 2.413,-7.499 4.304,-11.055 1.165,-2.204 2.445,-4.373 3.852,-6.443 0.835,-1.242 1.718,-2.445 2.653,-3.599 1.181,-1.6 2.532,-3.008 3.807,-4.476 1.338,-1.381 2.672,-2.752 4.046,-4.025 0.468,-0.431 0.943,-0.849 1.418,-1.267 -0.198,0.102 -0.384,0.205 -0.585,0.306 -2.885,1.551 -5.808,3.365 -8.707,5.412 -1.443,1.034 -2.829,2.169 -4.263,3.304 -1.312,1.237 -2.794,2.383 -4.028,3.751 -2.671,2.588 -4.96,5.578 -7.061,8.711 -2.108,3.14 -3.709,6.592 -5.01,10.112 -1.299,3.527 -2.144,7.189 -2.539,10.81 -0.887,7.249 -0.02,14.255 1.548,20.045 0.842,2.875 1.743,5.513 2.795,7.739 0.997,2.257 2.069,4.131 2.992,5.658 0.962,1.486 1.752,2.659 2.365,3.405 0.59,0.761 0.903,1.168 0.903,1.168 0,0 -0.368,-0.355 -1.056,-1.029 -0.71,-0.651 -1.66,-1.703 -2.853,-3.08 -1.145,-1.404 -2.503,-3.152 -3.85,-5.315 -1.399,-2.129 -2.706,-4.702 -4.01,-7.587 -2.484,-5.797 -4.497,-13.111 -4.66,-21.256 -0.126,-4.064 0.23,-8.312 1.137,-12.551 0.907,-4.227 2.215,-8.511 4.142,-12.519 1.912,-4 4.145,-7.917 6.82,-11.384 1.25,-1.827 2.735,-3.389 4.099,-5.066 0.857,-0.909 1.709,-1.811 2.569,-2.698 -65.618,31.779 -14.812,109.667 23.861,113.444 -2.599,-6.676 -4.457,-12.456 -5.978,-16.93 -1.183,-3.465 -2.067,-6.216 -2.78,-8.038 -0.722,-1.855 -1.108,-2.842 -1.108,-2.842 0,0 0.779,0.728 2.12,2.199 1.325,1.508 3.256,3.746 5.476,6.729 2.241,2.966 4.822,6.63 7.758,10.784 m 1.559,89.047 c -2.108,0.14 -4.031,0.175 -5.748,0.383 -1.702,0.279 -3.218,0.53 -4.54,0.747 -1.304,0.272 -2.387,0.618 -3.28,0.84 -1.758,0.486 -2.696,0.745 -2.696,0.745 0,0 0.97,-0.077 2.79,-0.223 0.909,-0.065 2.015,-0.218 3.325,-0.258 1.305,-0.006 2.804,-0.013 4.485,-0.018 1.668,0.046 3.507,0.293 5.487,0.449 0.971,0.187 1.984,0.386 3.035,0.594 1.051,0.184 2.131,0.387 3.19,0.792 1.068,0.369 2.191,0.675 3.289,1.112 1.061,0.516 2.15,1.043 3.271,1.587 2.058,1.274 4.018,2.432 6.209,4.614 3.777,3.495 6.66,8.74 7.971,14.626 1.336,5.935 1.142,12.57 -0.013,19.294 -1.141,6.754 -3.638,13.522 -6.572,20.191 -3.04,6.646 -6.866,13.089 -11.234,19.156 -4.325,6.137 -9.126,11.841 -14.379,17.106 -5.225,5.221 -10.656,10.094 -16.35,14.228 -5.69,4.134 -11.469,7.751 -17.24,10.611 -5.789,2.794 -11.488,5.01 -16.922,6.361 -5.429,1.382 -10.565,1.926 -15.116,1.849 -4.541,-0.165 -8.497,-0.933 -11.607,-2.047 -3.114,-1.127 -5.428,-2.42 -6.938,-3.405 -1.491,-1.044 -2.261,-1.643 -2.261,-1.643 0,0 0.65,0.725 1.936,2.02 1.354,1.241 3.421,3.069 6.523,4.696 3.081,1.642 7.155,3.145 12.029,3.874 4.859,0.697 10.492,0.8 16.458,-0.176 5.988,-0.876 12.332,-2.648 18.712,-5.278 6.37,-2.639 12.86,-6.002 19.066,-10.233 6.216,-4.206 12.363,-9.001 17.968,-14.54 5.607,-5.471 10.925,-11.59 15.622,-18.076 4.623,-6.574 8.642,-13.588 11.857,-20.876 3.207,-7.293 5.425,-14.936 6.466,-22.57 1.071,-7.622 0.738,-15.337 -1.357,-22.315 -2.038,-7.007 -6.062,-13.026 -11.255,-16.937 -0.584,-0.437 -1.161,-0.866 -1.733,-1.295 l -0.862,-0.632 -1.033,-0.573 c -1.384,-0.716 -2.698,-1.558 -4.039,-2.052 -1.336,-0.457 -2.638,-0.9 -3.903,-1.335 -1.283,-0.335 -2.56,-0.526 -3.77,-0.777 -1.209,-0.29 -2.399,-0.369 -3.543,-0.431 -1.145,-0.076 -2.244,-0.164 -3.298,-0.185 m 79.207,-37.01 3.027,-0.208 c 1.891,-0.142 3.861,-0.337 5.817,-0.538 3.908,-0.425 7.79,-0.88 11.618,-1.508 3.819,-0.635 7.609,-1.304 11.325,-2.101 2.988,-0.652 5.92,-1.373 8.82,-2.125 l -15.853,-23.797 -24.989,30.291 z m 75.546,16.323 c 0.705,1.059 2.131,1.345 3.195,0.64 1.057,-0.706 1.346,-2.137 0.64,-3.195 l -40.638,-61.001 -3.064,3.714 z m -2.863,58.784 c 0.2,-0.886 0.375,-1.991 0.714,-3.255 0.372,-1.252 0.8,-2.693 1.28,-4.301 0.528,-1.586 1.292,-3.273 2.013,-5.123 0.465,-0.879 0.949,-1.789 1.448,-2.735 0.482,-0.951 0.989,-1.926 1.684,-2.824 0.658,-0.916 1.274,-1.902 2.011,-2.828 0.801,-0.866 1.623,-1.756 2.468,-2.669 1.815,-1.604 3.49,-3.146 6.209,-4.611 4.441,-2.606 10.294,-3.848 16.308,-3.4 6.069,0.435 12.363,2.54 18.466,5.589 6.139,3.044 11.892,7.391 17.428,12.129 5.485,4.831 10.548,10.358 15.092,16.292 4.625,5.916 8.693,12.161 12.218,18.71 3.484,6.513 6.579,13.12 8.891,19.767 2.313,6.642 4.101,13.22 5.171,19.572 1.003,6.352 1.476,12.445 1.197,18.04 -0.248,5.599 -1.211,10.67 -2.598,15.004 -1.475,4.297 -3.352,7.86 -5.318,10.519 -1.977,2.654 -3.887,4.496 -5.265,5.654 -1.43,1.128 -2.226,1.692 -2.226,1.692 0,0 0.882,-0.411 2.493,-1.27 1.578,-0.937 3.926,-2.387 6.381,-4.886 2.463,-2.474 5.08,-5.939 7.188,-10.394 2.073,-4.45 3.797,-9.814 4.59,-15.806 0.893,-5.987 1.03,-12.569 0.356,-19.438 -0.681,-6.864 -2.027,-14.048 -4.279,-21.216 -2.23,-7.164 -5.044,-14.434 -8.726,-21.4 -3.613,-6.952 -7.937,-13.81 -12.787,-20.182 -4.956,-6.324 -10.508,-12.201 -16.556,-17.388 -6.053,-5.177 -12.728,-9.512 -19.738,-12.716 -6.987,-3.224 -14.466,-5.137 -21.752,-5.151 -7.297,-0.074 -14.226,2.036 -19.468,5.878 -0.589,0.434 -1.167,0.859 -1.74,1.284 l -0.855,0.64 -0.848,0.826 c -1.083,1.113 -2.273,2.131 -3.132,3.272 -0.824,1.147 -1.625,2.266 -2.406,3.351 -0.69,1.13 -1.244,2.298 -1.834,3.383 -0.627,1.072 -1.047,2.189 -1.44,3.268 -0.402,1.074 -0.803,2.103 -1.125,3.103 -0.476,2.058 -1,3.911 -1.297,5.612 -0.223,1.71 -0.424,3.234 -0.597,4.564 -0.12,1.326 -0.1,2.466 -0.145,3.38 -0.043,1.827 -0.067,2.799 -0.067,2.799 0,0 0.206,-0.95 0.593,-2.735 m 8.309,-96.643 c 11.014,-5.29 20.106,-10.524 27.038,-13.575 3.449,-1.539 6.44,-2.425 8.565,-2.506 2.165,-0.093 3.088,0.723 3.078,0.652 0,0 -0.271,-0.043 -0.767,-0.023 -0.498,0.003 -1.216,0.174 -2.068,0.522 -1.729,0.686 -3.908,2.453 -6.592,4.829 -4.061,3.644 -9.302,8.886 -16.077,14.635 11.803,2.997 29.643,5.417 45.718,-0.936 13.089,-5.177 22.977,-15.509 29.389,-30.706 10.292,-24.39 9.369,-46.963 -2.603,-63.557 -5.89,-8.164 -14.343,-14.545 -24.922,-19.094 2.044,1.887 4.025,3.925 5.931,6.06 2.878,3.446 5.521,7.182 7.645,11.224 2.071,4.071 3.644,8.371 4.605,12.707 0.995,4.333 1.244,8.702 1.075,12.836 -0.331,8.309 -2.71,15.645 -5.415,21.435 -1.419,2.876 -2.82,5.442 -4.295,7.565 -1.417,2.159 -2.822,3.91 -4.004,5.318 -1.225,1.38 -2.196,2.441 -2.916,3.101 -0.702,0.682 -1.077,1.046 -1.077,1.046 0,0 0.321,-0.413 0.921,-1.182 0.626,-0.759 1.437,-1.94 2.437,-3.44 0.963,-1.536 2.09,-3.423 3.164,-5.688 1.132,-2.232 2.13,-4.883 3.092,-7.776 0.906,-2.916 1.633,-6.136 2.087,-9.55 0.46,-3.416 0.511,-7.046 0.175,-10.705 -0.36,-3.657 -1.098,-7.373 -2.454,-10.902 -1.322,-3.538 -3.13,-6.905 -5.289,-10.006 -2.216,-3.08 -4.828,-5.845 -7.581,-8.352 -2.876,-2.414 -5.806,-4.647 -8.927,-6.471 -0.771,-0.462 -1.53,-0.922 -2.289,-1.376 -0.789,-0.413 -1.571,-0.817 -2.344,-1.219 -0.296,-0.155 -0.587,-0.305 -0.879,-0.455 0.554,0.568 1.113,1.133 1.66,1.717 2.747,3.099 5.31,6.455 7.463,10.063 0.541,0.923 1.053,1.858 1.54,2.804 1.433,2.762 2.629,5.615 3.558,8.496 1.258,3.847 1.952,7.74 2.282,11.466 0.65,7.437 -0.368,14.199 -1.956,19.696 -0.832,2.688 -1.759,5.121 -2.757,7.165 -0.509,1.064 -1.036,2.033 -1.528,2.91 -0.483,0.825 -0.941,1.575 -1.36,2.245 -0.941,1.36 -1.687,2.398 -2.277,3.051 -0.559,0.669 -0.859,1.029 -0.859,1.029 0,0 0.24,-0.4 0.693,-1.142 0.48,-0.736 1.054,-1.868 1.759,-3.293 0.336,-0.754 0.704,-1.598 1.08,-2.526 0.31,-0.862 0.649,-1.8 0.941,-2.811 0.656,-2.079 1.187,-4.501 1.584,-7.119 0.383,-2.615 0.568,-5.466 0.499,-8.46 -0.084,-3.037 -0.52,-6.228 -1.273,-9.432 -0.754,-3.173 -1.822,-6.378 -3.353,-9.432 -1.512,-3.067 -3.396,-5.995 -5.551,-8.697 -2.294,-2.788 -4.898,-5.303 -7.611,-7.57 -2.192,-1.74 -4.413,-3.361 -6.697,-4.777 -0.545,-0.334 -1.094,-0.656 -1.647,-0.966 -0.709,-0.411 -1.419,-0.817 -2.118,-1.216 -0.361,-0.185 -0.716,-0.362 -1.074,-0.54 l -0.171,0.819 c 1.963,2.197 3.823,4.521 5.507,6.964 0.553,0.812 1.085,1.63 1.602,2.462 1.508,2.411 2.843,4.909 3.985,7.435 1.527,3.359 2.66,6.772 3.492,10.096 1.629,6.562 1.978,12.747 1.495,17.951 -0.238,2.503 -0.688,4.799 -1.214,6.768 -0.272,1.003 -0.6,1.931 -0.882,2.771 -0.314,0.811 -0.616,1.556 -0.887,2.222 -0.661,1.337 -1.179,2.354 -1.635,2.998 -0.417,0.661 -0.643,1.013 -0.643,1.013 0,0 0.16,-0.384 0.462,-1.101 0.337,-0.712 0.67,-1.797 1.083,-3.144 0.165,-0.699 0.351,-1.479 0.538,-2.335 0.111,-0.821 0.259,-1.707 0.338,-2.654 0.183,-1.921 0.248,-4.117 0.077,-6.457 -0.14,-2.318 -0.501,-4.802 -1.089,-7.374 -0.631,-2.657 -1.547,-5.41 -2.72,-8.157 -1.15,-2.693 -2.548,-5.387 -4.25,-7.964 -1.702,-2.596 -3.661,-5.082 -5.814,-7.389 -2.372,-2.497 -4.969,-4.759 -7.641,-6.786 -0.901,-0.669 -1.807,-1.305 -2.716,-1.922 l -2.351,2.848 c 7.577,10.002 12.525,21.636 13.709,30.814 0.352,2.314 0.377,4.477 0.327,6.366 -0.039,0.943 -0.167,1.829 -0.234,2.634 -0.151,0.799 -0.294,1.535 -0.419,2.199 -0.38,1.315 -0.674,2.306 -0.993,2.943 -0.276,0.651 -0.425,0.998 -0.425,0.998 0,0 0.079,-0.367 0.231,-1.061 0.191,-0.688 0.287,-1.726 0.406,-2.996 -0.004,-0.645 -0.008,-1.364 -0.008,-2.141 -0.084,-0.779 -0.122,-1.612 -0.257,-2.498 -0.295,-1.766 -0.695,-3.733 -1.434,-5.8 -1.362,-4.153 -3.755,-8.712 -6.842,-13.164 -2.766,-3.959 -6.145,-7.802 -9.848,-11.278 l -46.058,55.83 24.616,36.953 c 4.669,-1.931 9.094,-3.937 13.244,-5.935 M 519.787,89.401 413.024,218.817 c 23.884,4.194 42.309,14.323 53.499,29.837 14.207,19.696 15.618,46.947 3.879,74.775 -7.663,18.159 -19.696,30.585 -35.772,36.946 -23.524,9.298 -49.201,2.962 -61.129,-1.035 -2.259,1.614 -4.653,3.221 -7.148,4.806 l 16.955,25.452 c 3.306,-0.843 6.783,-1.271 10.407,-1.271 28.024,0 60.908,25.17 81.824,62.628 12.899,23.096 19.667,47.843 19.059,69.681 -0.619,22.269 -8.827,38.927 -23.103,46.897 -5.822,3.252 -12.395,4.9 -19.544,4.9 -28.021,0 -60.905,-25.168 -81.819,-62.628 -21.857,-39.143 -24.702,-81.098 -9.302,-104.084 l -19.223,-28.855 c -0.882,0.358 -1.747,0.73 -2.645,1.071 -3.834,1.496 -7.813,2.825 -11.884,4.006 -4.068,1.193 -8.23,2.272 -12.47,3.123 -4.24,0.858 -8.529,1.65 -12.863,2.18 -2.167,0.258 -4.333,0.504 -6.589,0.703 l -3.197,0.268 -1.555,0.121 -1.835,0.074 c -4.927,0.2 -9.945,-0.004 -14.911,-0.657 l -19.197,23.269 c 15.238,25.478 2.385,70.373 -32.047,106.008 -24.597,25.461 -55.786,41.277 -81.392,41.277 -12.782,0 -23.632,-3.955 -31.376,-11.436 -11.761,-11.363 -15.426,-29.565 -10.319,-51.25 5.007,-21.263 17.889,-43.45 36.272,-62.478 24.601,-25.462 55.79,-41.278 81.396,-41.278 5.596,0 10.791,0.802 15.547,2.282 l 13.202,-16 c -3.238,-1.897 -6.269,-4.017 -9.074,-6.279 -6.79,-5.547 -12.32,-11.797 -16.721,-18.063 -4.414,-6.283 -7.843,-12.526 -10.643,-18.365 -0.001,-0.004 -0.003,-0.009 -0.006,-0.014 -15.569,2.353 -66.387,5.556 -86.737,-47.9 -9.982,-26.243 -7.474,-52.289 6.887,-71.47 15.902,-21.24 44.767,-32.57 82.23,-32.57 0.369,0 0.75,0.022 1.116,0.024 L 129.155,57.959 c -4.237,-6.355 -2.513,-14.936 3.839,-19.167 2.358,-1.57 5.02,-2.322 7.65,-2.322 4.47,0 8.859,2.163 11.519,6.162 l 66.844,100.337 3.514,-23.601 10.097,1.909 c 20.079,5.731 110.893,18.261 170.514,18.261 h 9.255 l -0.04,10.227 c -0.034,8.088 -0.963,18.469 -2.298,29.011 l 88.413,-107.07 c 2.732,-3.311 6.686,-4.975 10.67,-4.975 3.098,0 6.215,1.058 8.79,3.185 5.889,4.858 6.726,13.596 1.865,19.485"
           style="fill:#110f0d;fill-opacity:1;fill-rule:nonzero;stroke:none"
           id="path6076"
           inkscape:connector-curvature="0" /></g></g></g></svg>